<svg xmlns="http://www.w3.org/2000/svg" xmlns:xlink="http://www.w3.org/1999/xlink" width="1950" height="1036.95"><rect width="1950" height="1036.95" rx="5" ry="5" class="a"/><svg y="0%" x="0%"><circle cx="20" cy="20" r="6" fill="#ff5f58"/><circle cx="40" cy="20" r="6" fill="#ffbd2e"/><circle cx="60" cy="20" r="6" fill="#18c132"/></svg><svg height="976.95" viewBox="0 0 191 97.695" width="1910" x="15" xmlns="http://www.w3.org/2000/svg" xmlns:xlink="http://www.w3.org/1999/xlink" y="50"><style>@keyframes q{0%{transform:translateX(0)}1.2%{transform:translateX(-1146px)}9.6%{transform:translateX(-1337px)}11.4%{transform:translateX(-1528px)}12%{transform:translateX(-1719px)}12.6%{transform:translateX(-1910px)}13.9%{transform:translateX(-2101px)}14.6%{transform:translateX(-2292px)}15.4%{transform:translateX(-2483px)}16.2%{transform:translateX(-2674px)}16.8%{transform:translateX(-2865px)}18%{transform:translateX(-3056px)}19.3%{transform:translateX(-3247px)}19.9%{transform:translateX(-3438px)}21.7%{transform:translateX(-4775px)}21.8%{transform:translateX(-5539px)}31.1%{transform:translateX(-5730px)}31.6%{transform:translateX(-5921px)}32.5%{transform:translateX(-6112px)}33%{transform:translateX(-6303px)}35%{transform:translateX(-6494px)}38.9%{transform:translateX(-7067px)}39%{transform:translateX(-8213px)}44.1%{transform:translateX(-8404px)}44.5%{transform:translateX(-8595px)}45.8%{transform:translateX(-8977px)}46.2%{transform:translateX(-9168px)}58.2%{transform:translateX(-13370px)}78%{transform:translateX(-13561px)}78.1%{transform:translateX(-13752px)}78.2%{transform:translateX(-14516px)}78.3%{transform:translateX(-15280px)}to{transform:translateX(-15471px)}}.a{fill:#282d35}.f{fill:#a8cc8c;font-weight:700}.f,.g,.h,.j{white-space:pre}.g{fill:#66c2cd;font-weight:700}.h,.j{fill:#b9c0cb}.j{fill:#6f7783}</style><g font-family="Monaco,Consolas,Menlo,'Bitstream Vera Sans Mono','Powerline Symbols',monospace" font-size="1.67"><defs><symbol id="1"><text y="1.67" class="f">➜</text><text x="3.006" y="1.67" class="g">parottu</text></symbol><symbol id="2"><text y="1.67" class="f">➜</text><text x="3.006" y="1.67" class="g">parottu</text><text x="11.022" y="1.67" class="h">cat</text></symbol><symbol id="3"><text y="1.67" class="f">➜</text><text x="3.006" y="1.67" class="g">parottu</text><text x="11.022" y="1.67" class="h">cat</text><text x="15.03" y="1.67" class="h">start.sh</text></symbol><symbol id="4"><text y="1.67" class="h">congregation</text><text x="13.026" y="1.67" class="h">\</text></symbol><symbol id="5"><text x="4.008" y="1.67" class="h">run</text><text x="8.016" y="1.67" class="h">&apos;bun</text><text x="13.026" y="1.67" class="h">dev&apos;</text><text x="18.036" y="1.67" class="h">-d</text><text x="21.042" y="1.67" class="h">infra/app</text><text x="31.062" y="1.67" class="h">-c</text><text x="34.068" y="1.67" class="h">ff9f52</text><text x="41.082" y="1.67" class="h">\</text></symbol><symbol id="6"><text x="4.008" y="1.67" class="h">run</text><text x="8.016" y="1.67" class="h">&apos;bun</text><text x="13.026" y="1.67" class="h">dev&apos;</text><text x="18.036" y="1.67" class="h">-d</text><text x="21.042" y="1.67" class="h">infra/auth-service</text><text x="40.08" y="1.67" class="h">-c</text><text x="43.086" y="1.67" class="h">6495ed</text><text x="50.1" y="1.67" class="h">\</text></symbol><symbol id="7"><text x="4.008" y="1.67" class="h">run</text><text x="8.016" y="1.67" class="h">&apos;bun</text><text x="13.026" y="1.67" class="h">dev&apos;</text><text x="18.036" y="1.67" class="h">-d</text><text x="21.042" y="1.67" class="h">infra/gic</text><text x="31.062" y="1.67" class="h">-c</text><text x="34.068" y="1.67" class="h">8fff94</text></symbol><symbol id="8"><text y="1.67" class="f">➜</text><text x="3.006" y="1.67" class="g">parottu</text><text x="11.022" y="1.67" class="h">./start.sh</text></symbol><symbol id="9"><text y="1.67" style="white-space:pre" fill="#ff9f52" font-weight="700">infra/app</text></symbol><symbol id="10"><text y="1.67" class="j">└</text><text x="2.004" y="1.67" style="white-space:pre" fill="#b9bfca">running...</text></symbol><symbol id="11"><text y="1.67" style="white-space:pre" fill="#6495ed" font-weight="700">infra/auth-service</text></symbol><symbol id="12"><text y="1.67" style="white-space:pre" fill="#8fff94" font-weight="700">infra/gic</text></symbol><symbol id="13"><text y="1.67" class="j">│</text><text x="2.004" y="1.67" class="h">$</text><text x="4.008" y="1.67" class="h">bun</text><text x="8.016" y="1.67" class="h">run</text><text x="12.024" y="1.67" class="h">--watch</text><text x="20.04" y="1.67" class="h">src/index.ts</text></symbol><symbol id="14"><text y="1.67" class="j">│</text><text x="2.004" y="1.67" class="h">$</text><text x="4.008" y="1.67" class="h">vite</text><text x="9.018" y="1.67" class="h">dev</text></symbol><symbol id="15"><text y="1.67" class="j">│</text><text x="2.004" y="1.67" class="h">[Webhook]</text><text x="12.024" y="1.67" class="h">NODE_ENV</text><text x="21.042" y="1.67" class="h">is</text><text x="24.048" y="1.67" class="h">not</text><text x="28.056" y="1.67" class="h">set;</text><text x="33.066" y="1.67" class="h">assuming</text><text x="42.084" y="1.67" class="h">development...</text></symbol><symbol id="16"><text y="1.67" class="j">│</text><text x="2.004" y="1.67" class="h">🦊</text><text x="5.01" y="1.67" class="h">galactic</text><text x="14.028" y="1.67" class="h">intercommunication</text><text x="33.066" y="1.67" class="h">service</text><text x="41.082" y="1.67" class="h">is</text><text x="44.088" y="1.67" class="h">running</text><text x="52.104" y="1.67" class="h">at</text><text x="55.11" y="1.67" class="h">localhost:3000</text></symbol><symbol id="17"><text y="1.67" class="j">│</text><text x="2.004" y="1.67" class="h">🦊</text><text x="5.01" y="1.67" class="h">auth</text><text x="10.02" y="1.67" class="h">service</text><text x="18.036" y="1.67" class="h">is</text><text x="21.042" y="1.67" class="h">running</text><text x="29.058" y="1.67" class="h">at</text><text x="32.064" y="1.67" class="h">localhost:3001</text></symbol><symbol id="18"><text y="1.67" class="j">│</text></symbol><symbol id="19"><text y="1.67" class="j">│</text><text x="4.008" y="1.67" class="h">VITE</text><text x="9.018" y="1.67" class="h">v6.3.5</text><text x="17.034" y="1.67" class="h">ready</text><text x="23.046" y="1.67" class="h">in</text><text x="26.052" y="1.67" class="h">2307</text><text x="31.062" y="1.67" class="h">ms</text></symbol><symbol id="20"><text y="1.67" class="j">│</text><text x="4.008" y="1.67" class="h">➜</text><text x="7.014" y="1.67" class="h">Local:</text><text x="16.032" y="1.67" class="h">http://localhost:1420/</text></symbol><symbol id="21"><text y="1.67" class="j">│</text><text x="4.008" y="1.67" class="h">➜</text><text x="7.014" y="1.67" class="h">press</text><text x="13.026" y="1.67" class="h">h</text><text x="15.03" y="1.67" class="h">+</text><text x="17.034" y="1.67" class="h">enter</text><text x="23.046" y="1.67" class="h">to</text><text x="26.052" y="1.67" class="h">show</text><text x="31.062" y="1.67" class="h">help</text></symbol><symbol id="22"><text y="1.67" class="j">└</text><text x="2.004" y="1.67" style="white-space:pre" fill="#e88388">terminated</text></symbol><symbol id="a"><path fill="transparent" d="M0 0h191v45H0z"/></symbol><symbol id="b"><path fill="#6f7683" d="M0 0h1.102v2.171H0z"/></symbol></defs><path class="a" d="M0 0h191v97.695H0z"/><g style="animation-duration:12.312294s;animation-iteration-count:infinite;animation-name:q;animation-timing-function:steps(1,end)"><svg width="15662"><svg><use xlink:href="#a"/><use xlink:href="#b" x="-.004"/></svg><svg x="191"><use xlink:href="#a"/><use xlink:href="#b" x="-.004"/></svg><svg x="382"><use xlink:href="#a"/><use xlink:href="#b" x="-.004"/></svg><svg x="573"><use xlink:href="#a"/><use xlink:href="#b" x="-.004"/></svg><svg x="764"><use xlink:href="#a"/><use xlink:href="#b" x="10.996"/><use xlink:href="#1"/></svg><svg x="955"><use xlink:href="#a"/><use xlink:href="#b" x="10.996"/><use xlink:href="#1"/></svg><svg x="1146"><use xlink:href="#a"/><use xlink:href="#b" x="10.996"/><use xlink:href="#1"/></svg><svg x="1337"><use xlink:href="#a"/><use xlink:href="#b" x="11.996"/><text y="1.67" class="f">➜</text><text x="3.006" y="1.67" class="g">parottu</text><text x="11.022" y="1.67" class="h">c</text></svg><svg x="1528"><use xlink:href="#a"/><use xlink:href="#b" x="12.996"/><text y="1.67" class="f">➜</text><text x="3.006" y="1.67" class="g">parottu</text><text x="11.022" y="1.67" class="h">ca</text></svg><svg x="1719"><use xlink:href="#a"/><use xlink:href="#b" x="13.996"/><use xlink:href="#2"/></svg><svg x="1910"><use xlink:href="#a"/><use xlink:href="#b" x="14.996"/><use xlink:href="#2"/></svg><svg x="2101"><use xlink:href="#a"/><use xlink:href="#b" x="15.996"/><text y="1.67" class="f">➜</text><text x="3.006" y="1.67" class="g">parottu</text><text x="11.022" y="1.67" class="h">cat</text><text x="15.03" y="1.67" class="h">s</text></svg><svg x="2292"><use xlink:href="#a"/><use xlink:href="#b" x="16.996"/><text y="1.67" class="f">➜</text><text x="3.006" y="1.67" class="g">parottu</text><text x="11.022" y="1.67" class="h">cat</text><text x="15.03" y="1.67" class="h">st</text></svg><svg x="2483"><use xlink:href="#a"/><use xlink:href="#b" x="17.996"/><text y="1.67" class="f">➜</text><text x="3.006" y="1.67" class="g">parottu</text><text x="11.022" y="1.67" class="h">cat</text><text x="15.03" y="1.67" class="h">sta</text></svg><svg x="2674"><use xlink:href="#a"/><use xlink:href="#b" x="18.996"/><text y="1.67" class="f">➜</text><text x="3.006" y="1.67" class="g">parottu</text><text x="11.022" y="1.67" class="h">cat</text><text x="15.03" y="1.67" class="h">star</text></svg><svg x="2865"><use xlink:href="#a"/><use xlink:href="#b" x="19.996"/><text y="1.67" class="f">➜</text><text x="3.006" y="1.67" class="g">parottu</text><text x="11.022" y="1.67" class="h">cat</text><text x="15.03" y="1.67" class="h">start</text></svg><svg x="3056"><use xlink:href="#a"/><use xlink:href="#b" x="20.996"/><text y="1.67" class="f">➜</text><text x="3.006" y="1.67" class="g">parottu</text><text x="11.022" y="1.67" class="h">cat</text><text x="15.03" y="1.67" class="h">start.</text></svg><svg x="3247"><use xlink:href="#a"/><use xlink:href="#b" x="21.996"/><text y="1.67" class="f">➜</text><text x="3.006" y="1.67" class="g">parottu</text><text x="11.022" y="1.67" class="h">cat</text><text x="15.03" y="1.67" class="h">start.s</text></svg><svg x="3438"><use xlink:href="#a"/><use xlink:href="#b" x="22.996"/><use xlink:href="#3"/></svg><svg x="3629"><use xlink:href="#a"/><use xlink:href="#b" x="22.996"/><use xlink:href="#3"/></svg><svg x="3820"><use xlink:href="#a"/><use xlink:href="#b" x="-.004" y="2.146"/><use xlink:href="#3"/></svg><svg x="4011"><use xlink:href="#a"/><use xlink:href="#b" x="-.004" y="2.146"/><use xlink:href="#3"/></svg><svg x="4202"><use xlink:href="#a"/><use xlink:href="#b" x="-.004" y="13.001"/><use xlink:href="#3"/><use xlink:href="#4" y="2.171"/><use xlink:href="#5" y="4.342"/><use xlink:href="#6" y="6.513"/><use xlink:href="#7" y="8.684"/></svg><svg x="4393"><use xlink:href="#a"/><use xlink:href="#b" x="-.004" y="13.001"/><use xlink:href="#3"/><use xlink:href="#4" y="2.171"/><use xlink:href="#5" y="4.342"/><use xlink:href="#6" y="6.513"/><use xlink:href="#7" y="8.684"/></svg><svg x="4584"><use xlink:href="#a"/><use xlink:href="#b" x="-.004" y="13.001"/><use xlink:href="#3"/><use xlink:href="#4" y="2.171"/><use xlink:href="#5" y="4.342"/><use xlink:href="#6" y="6.513"/><use xlink:href="#7" y="8.684"/></svg><svg x="4775"><use xlink:href="#a"/><use xlink:href="#b" x="-.004" y="13.001"/><use xlink:href="#3"/><use xlink:href="#4" y="2.171"/><use xlink:href="#5" y="4.342"/><use xlink:href="#6" y="6.513"/><use xlink:href="#7" y="8.684"/></svg><svg x="4966"><use xlink:href="#a"/><use xlink:href="#b" x="-.004" y="13.001"/><use xlink:href="#3"/><use xlink:href="#4" y="2.171"/><use xlink:href="#5" y="4.342"/><use xlink:href="#6" y="6.513"/><use xlink:href="#7" y="8.684"/></svg><svg x="5157"><use xlink:href="#a"/><use xlink:href="#b" x="10.996" y="13.001"/><use xlink:href="#3"/><use xlink:href="#4" y="2.171"/><use xlink:href="#5" y="4.342"/><use xlink:href="#6" y="6.513"/><use xlink:href="#7" y="8.684"/><use xlink:href="#1" y="13.026"/></svg><svg x="5348"><use xlink:href="#a"/><use xlink:href="#b" x="10.996" y="13.001"/><use xlink:href="#3"/><use xlink:href="#4" y="2.171"/><use xlink:href="#5" y="4.342"/><use xlink:href="#6" y="6.513"/><use xlink:href="#7" y="8.684"/><use xlink:href="#1" y="13.026"/></svg><svg x="5539"><use xlink:href="#a"/><use xlink:href="#b" x="10.996" y="13.001"/><use xlink:href="#3"/><use xlink:href="#4" y="2.171"/><use xlink:href="#5" y="4.342"/><use xlink:href="#6" y="6.513"/><use xlink:href="#7" y="8.684"/><use xlink:href="#1" y="13.026"/></svg><svg x="5730"><use xlink:href="#a"/><use xlink:href="#b" x="11.996" y="13.001"/><use xlink:href="#3"/><use xlink:href="#4" y="2.171"/><use xlink:href="#5" y="4.342"/><use xlink:href="#6" y="6.513"/><use xlink:href="#7" y="8.684"/><text y="14.696" class="f">➜</text><text x="3.006" y="14.696" class="g">parottu</text><text x="11.022" y="14.696" class="h">.</text></svg><svg x="5921"><use xlink:href="#a"/><use xlink:href="#b" x="12.996" y="13.001"/><use xlink:href="#3"/><use xlink:href="#4" y="2.171"/><use xlink:href="#5" y="4.342"/><use xlink:href="#6" y="6.513"/><use xlink:href="#7" y="8.684"/><text y="14.696" class="f">➜</text><text x="3.006" y="14.696" class="g">parottu</text><text x="11.022" y="14.696" class="h">./</text></svg><svg x="6112"><use xlink:href="#a"/><use xlink:href="#b" x="13.996" y="13.001"/><use xlink:href="#3"/><use xlink:href="#4" y="2.171"/><use xlink:href="#5" y="4.342"/><use xlink:href="#6" y="6.513"/><use xlink:href="#7" y="8.684"/><text y="14.696" class="f">➜</text><text x="3.006" y="14.696" class="g">parottu</text><text x="11.022" y="14.696" class="h">./s</text></svg><svg x="6303"><use xlink:href="#a"/><use xlink:href="#b" x="14.996" y="13.001"/><use xlink:href="#3"/><use xlink:href="#4" y="2.171"/><use xlink:href="#5" y="4.342"/><use xlink:href="#6" y="6.513"/><use xlink:href="#7" y="8.684"/><text y="14.696" class="f">➜</text><text x="3.006" y="14.696" class="g">parottu</text><text x="11.022" y="14.696" class="h">./st</text></svg><svg x="6494"><use xlink:href="#a"/><use xlink:href="#b" x="21.996" y="13.001"/><use xlink:href="#3"/><use xlink:href="#4" y="2.171"/><use xlink:href="#5" y="4.342"/><use xlink:href="#6" y="6.513"/><use xlink:href="#7" y="8.684"/><use xlink:href="#8" y="13.026"/></svg><svg x="6685"><use xlink:href="#a"/><use xlink:href="#b" x="20.996" y="13.001"/><use xlink:href="#3"/><use xlink:href="#4" y="2.171"/><use xlink:href="#5" y="4.342"/><use xlink:href="#6" y="6.513"/><use xlink:href="#7" y="8.684"/><use xlink:href="#8" y="13.026"/></svg><svg x="6876"><use xlink:href="#a"/><use xlink:href="#b" x="20.996" y="13.001"/><use xlink:href="#3"/><use xlink:href="#4" y="2.171"/><use xlink:href="#5" y="4.342"/><use xlink:href="#6" y="6.513"/><use xlink:href="#7" y="8.684"/><use xlink:href="#8" y="13.026"/></svg><svg x="7067"><use xlink:href="#a"/><use xlink:href="#b" x="-.004" y="15.172"/><use xlink:href="#3"/><use xlink:href="#4" y="2.171"/><use xlink:href="#5" y="4.342"/><use xlink:href="#6" y="6.513"/><use xlink:href="#7" y="8.684"/><use xlink:href="#8" y="13.026"/></svg><svg x="7258"><use xlink:href="#a"/><use xlink:href="#b" x="-.004" y="15.172"/><use xlink:href="#3"/><use xlink:href="#4" y="2.171"/><use xlink:href="#5" y="4.342"/><use xlink:href="#6" y="6.513"/><use xlink:href="#7" y="8.684"/><use xlink:href="#8" y="13.026"/></svg><svg x="7449"><use xlink:href="#a"/><use xlink:href="#b" x="-.004" y="28.198"/><use xlink:href="#3"/><use xlink:href="#4" y="2.171"/><use xlink:href="#5" y="4.342"/><use xlink:href="#6" y="6.513"/><use xlink:href="#7" y="8.684"/><use xlink:href="#8" y="13.026"/><use xlink:href="#9" y="15.197"/><use xlink:href="#10" y="17.368"/><use xlink:href="#11" y="19.539"/><use xlink:href="#10" y="21.71"/><use xlink:href="#12" y="23.881"/><use xlink:href="#10" y="26.052"/></svg><svg x="7640"><use xlink:href="#a"/><use xlink:href="#b" x="-.004" y="30.369"/><use xlink:href="#3"/><use xlink:href="#4" y="2.171"/><use xlink:href="#5" y="4.342"/><use xlink:href="#6" y="6.513"/><use xlink:href="#7" y="8.684"/><use xlink:href="#8" y="13.026"/><use xlink:href="#9" y="15.197"/><use xlink:href="#10" y="17.368"/><use xlink:href="#11" y="19.539"/><use xlink:href="#13" y="21.71"/><use xlink:href="#10" y="23.881"/><use xlink:href="#12" y="26.052"/><use xlink:href="#10" y="28.223"/></svg><svg x="7831"><use xlink:href="#a"/><use xlink:href="#b" x="-.004" y="28.198"/><use xlink:href="#3"/><use xlink:href="#4" y="2.171"/><use xlink:href="#5" y="4.342"/><use xlink:href="#6" y="6.513"/><use xlink:href="#7" y="8.684"/><use xlink:href="#8" y="13.026"/><use xlink:href="#9" y="15.197"/><use xlink:href="#14" y="17.368"/><use xlink:href="#10" y="19.539"/><use xlink:href="#11" y="21.71"/><use xlink:href="#13" y="23.881"/><use xlink:href="#10" y="26.052"/><use xlink:href="#10" y="28.223"/></svg><svg x="8022"><use xlink:href="#a"/><use xlink:href="#b" x="-.004" y="32.54"/><use xlink:href="#3"/><use xlink:href="#4" y="2.171"/><use xlink:href="#5" y="4.342"/><use xlink:href="#6" y="6.513"/><use xlink:href="#7" y="8.684"/><use xlink:href="#8" y="13.026"/><use xlink:href="#9" y="15.197"/><use xlink:href="#14" y="17.368"/><use xlink:href="#10" y="19.539"/><use xlink:href="#11" y="21.71"/><use xlink:href="#13" y="23.881"/><use xlink:href="#10" y="26.052"/><use xlink:href="#12" y="28.223"/><use xlink:href="#10" y="30.394"/></svg><svg x="8213"><use xlink:href="#a"/><use xlink:href="#b" x="-.004" y="34.711"/><use xlink:href="#3"/><use xlink:href="#4" y="2.171"/><use xlink:href="#5" y="4.342"/><use xlink:href="#6" y="6.513"/><use xlink:href="#7" y="8.684"/><use xlink:href="#8" y="13.026"/><use xlink:href="#9" y="15.197"/><use xlink:href="#14" y="17.368"/><use xlink:href="#10" y="19.539"/><use xlink:href="#11" y="21.71"/><use xlink:href="#13" y="23.881"/><use xlink:href="#10" y="26.052"/><use xlink:href="#12" y="28.223"/><use xlink:href="#13" y="30.394"/><use xlink:href="#10" y="32.565"/></svg><svg x="8404"><use xlink:href="#a"/><use xlink:href="#b" x="-.004" y="36.882"/><use xlink:href="#3"/><use xlink:href="#4" y="2.171"/><use xlink:href="#5" y="4.342"/><use xlink:href="#6" y="6.513"/><use xlink:href="#7" y="8.684"/><use xlink:href="#8" y="13.026"/><use xlink:href="#9" y="15.197"/><use xlink:href="#14" y="17.368"/><use xlink:href="#10" y="19.539"/><use xlink:href="#11" y="21.71"/><use xlink:href="#13" y="23.881"/><use xlink:href="#10" y="26.052"/><use xlink:href="#12" y="28.223"/><use xlink:href="#13" y="30.394"/><use xlink:href="#15" y="32.565"/><use xlink:href="#10" y="34.736"/></svg><svg x="8595"><use xlink:href="#a"/><use xlink:href="#b" x="-.004" y="39.053"/><use xlink:href="#3"/><use xlink:href="#4" y="2.171"/><use xlink:href="#5" y="4.342"/><use xlink:href="#6" y="6.513"/><use xlink:href="#7" y="8.684"/><use xlink:href="#8" y="13.026"/><use xlink:href="#9" y="15.197"/><use xlink:href="#14" y="17.368"/><use xlink:href="#10" y="19.539"/><use xlink:href="#11" y="21.71"/><use xlink:href="#13" y="23.881"/><use xlink:href="#10" y="26.052"/><use xlink:href="#12" y="28.223"/><use xlink:href="#13" y="30.394"/><use xlink:href="#15" y="32.565"/><use xlink:href="#16" y="34.736"/><use xlink:href="#10" y="36.907"/></svg><svg x="8786"><use xlink:href="#a"/><use xlink:href="#b" x="-.004" y="41.224"/><use xlink:href="#3"/><use xlink:href="#4" y="2.171"/><use xlink:href="#5" y="4.342"/><use xlink:href="#6" y="6.513"/><use xlink:href="#7" y="8.684"/><use xlink:href="#8" y="13.026"/><use xlink:href="#9" y="15.197"/><use xlink:href="#14" y="17.368"/><use xlink:href="#10" y="19.539"/><use xlink:href="#11" y="21.71"/><use xlink:href="#13" y="23.881"/><use xlink:href="#15" y="26.052"/><use xlink:href="#10" y="28.223"/><use xlink:href="#12" y="30.394"/><use xlink:href="#13" y="32.565"/><use xlink:href="#15" y="34.736"/><use xlink:href="#16" y="36.907"/><use xlink:href="#10" y="39.078"/></svg><svg x="8977"><use xlink:href="#a"/><use xlink:href="#b" x="-.004" y="41.224"/><use xlink:href="#3"/><use xlink:href="#4" y="2.171"/><use xlink:href="#5" y="4.342"/><use xlink:href="#6" y="6.513"/><use xlink:href="#7" y="8.684"/><use xlink:href="#8" y="13.026"/><use xlink:href="#9" y="15.197"/><use xlink:href="#14" y="17.368"/><use xlink:href="#10" y="19.539"/><use xlink:href="#11" y="21.71"/><use xlink:href="#13" y="23.881"/><use xlink:href="#15" y="26.052"/><use xlink:href="#10" y="28.223"/><use xlink:href="#12" y="30.394"/><use xlink:href="#13" y="32.565"/><use xlink:href="#15" y="34.736"/><use xlink:href="#16" y="36.907"/><use xlink:href="#10" y="39.078"/></svg><svg x="9168"><use xlink:href="#a"/><use xlink:href="#b" x="-.004" y="43.395"/><use xlink:href="#3"/><use xlink:href="#4" y="2.171"/><use xlink:href="#5" y="4.342"/><use xlink:href="#6" y="6.513"/><use xlink:href="#7" y="8.684"/><use xlink:href="#8" y="13.026"/><use xlink:href="#9" y="15.197"/><use xlink:href="#14" y="17.368"/><use xlink:href="#10" y="19.539"/><use xlink:href="#11" y="21.71"/><use xlink:href="#13" y="23.881"/><use xlink:href="#15" y="26.052"/><use xlink:href="#17" y="28.223"/><use xlink:href="#10" y="30.394"/><use xlink:href="#12" y="32.565"/><use xlink:href="#13" y="34.736"/><use xlink:href="#15" y="36.907"/><use xlink:href="#16" y="39.078"/><use xlink:href="#10" y="41.249"/></svg><svg x="9359"><use xlink:href="#a"/><use xlink:href="#b" x="11.996" y="43.395"/><use xlink:href="#3"/><use xlink:href="#4" y="2.171"/><use xlink:href="#5" y="4.342"/><use xlink:href="#6" y="6.513"/><use xlink:href="#7" y="8.684"/><use xlink:href="#8" y="13.026"/><use xlink:href="#9" y="15.197"/><use xlink:href="#14" y="17.368"/><use xlink:href="#18" y="19.539"/><use xlink:href="#10" y="21.71"/><use xlink:href="#11" y="23.881"/><use xlink:href="#13" y="26.052"/><use xlink:href="#15" y="28.223"/><use xlink:href="#17" y="30.394"/><use xlink:href="#10" y="32.565"/><use xlink:href="#12" y="34.736"/><use xlink:href="#13" y="36.907"/><use xlink:href="#15" y="39.078"/><use xlink:href="#16" y="41.249"/><use xlink:href="#10" y="43.42"/></svg><svg x="9550"><use xlink:href="#a"/><use xlink:href="#b" x="-.004" y="23.856"/><use xlink:href="#3"/><use xlink:href="#4" y="2.171"/><use xlink:href="#5" y="4.342"/><use xlink:href="#6" y="6.513"/><use xlink:href="#7" y="8.684"/><use xlink:href="#8" y="13.026"/><use xlink:href="#9" y="15.197"/><use xlink:href="#14" y="17.368"/><use xlink:href="#18" y="19.539"/><use xlink:href="#19" y="21.71"/><use xlink:href="#11" y="23.881"/><use xlink:href="#13" y="26.052"/><use xlink:href="#15" y="28.223"/><use xlink:href="#17" y="30.394"/><use xlink:href="#10" y="32.565"/><use xlink:href="#12" y="34.736"/><use xlink:href="#13" y="36.907"/><use xlink:href="#15" y="39.078"/><use xlink:href="#16" y="41.249"/><use xlink:href="#10" y="43.42"/></svg><svg x="9741"><use xlink:href="#a"/><use xlink:href="#b" x="-.004" y="26.027"/><use xlink:href="#3"/><use xlink:href="#4" y="2.171"/><use xlink:href="#5" y="4.342"/><use xlink:href="#6" y="6.513"/><use xlink:href="#7" y="8.684"/><use xlink:href="#8" y="13.026"/><use xlink:href="#9" y="15.197"/><use xlink:href="#14" y="17.368"/><use xlink:href="#18" y="19.539"/><use xlink:href="#19" y="21.71"/><use xlink:href="#10" y="23.881"/><use xlink:href="#13" y="26.052"/><use xlink:href="#15" y="28.223"/><use xlink:href="#17" y="30.394"/><use xlink:href="#10" y="32.565"/><use xlink:href="#12" y="34.736"/><use xlink:href="#13" y="36.907"/><use xlink:href="#15" y="39.078"/><use xlink:href="#16" y="41.249"/><use xlink:href="#10" y="43.42"/></svg><svg x="9932"><use xlink:href="#a"/><use xlink:href="#b" x="-.004" y="36.882"/><use xlink:href="#3"/><use xlink:href="#4" y="2.171"/><use xlink:href="#5" y="4.342"/><use xlink:href="#6" y="6.513"/><use xlink:href="#7" y="8.684"/><use xlink:href="#8" y="13.026"/><use xlink:href="#9" y="15.197"/><use xlink:href="#14" y="17.368"/><use xlink:href="#18" y="19.539"/><use xlink:href="#19" y="21.71"/><use xlink:href="#10" y="23.881"/><use xlink:href="#11" y="26.052"/><use xlink:href="#13" y="28.223"/><use xlink:href="#15" y="30.394"/><use xlink:href="#17" y="32.565"/><use xlink:href="#10" y="34.736"/><use xlink:href="#13" y="36.907"/><use xlink:href="#15" y="39.078"/><use xlink:href="#16" y="41.249"/><use xlink:href="#10" y="43.42"/></svg><svg x="10123"><use xlink:href="#a"/><use xlink:href="#b" x="-.004" y="47.737"/><use xlink:href="#3"/><use xlink:href="#4" y="2.171"/><use xlink:href="#5" y="4.342"/><use xlink:href="#6" y="6.513"/><use xlink:href="#7" y="8.684"/><use xlink:href="#8" y="13.026"/><use xlink:href="#9" y="15.197"/><use xlink:href="#14" y="17.368"/><use xlink:href="#18" y="19.539"/><use xlink:href="#19" y="21.71"/><use xlink:href="#10" y="23.881"/><use xlink:href="#11" y="26.052"/><use xlink:href="#13" y="28.223"/><use xlink:href="#15" y="30.394"/><use xlink:href="#17" y="32.565"/><use xlink:href="#10" y="34.736"/><use xlink:href="#12" y="36.907"/><use xlink:href="#13" y="39.078"/><use xlink:href="#15" y="41.249"/><use xlink:href="#16" y="43.42"/><use xlink:href="#10" y="45.591"/></svg><svg x="10314"><use xlink:href="#a"/><use xlink:href="#b" x="-.004" y="47.737"/><use xlink:href="#3"/><use xlink:href="#4" y="2.171"/><use xlink:href="#5" y="4.342"/><use xlink:href="#6" y="6.513"/><use xlink:href="#7" y="8.684"/><use xlink:href="#8" y="13.026"/><use xlink:href="#9" y="15.197"/><use xlink:href="#14" y="17.368"/><use xlink:href="#18" y="19.539"/><use xlink:href="#19" y="21.71"/><use xlink:href="#10" y="23.881"/><use xlink:href="#11" y="26.052"/><use xlink:href="#13" y="28.223"/><use xlink:href="#15" y="30.394"/><use xlink:href="#17" y="32.565"/><use xlink:href="#10" y="34.736"/><use xlink:href="#12" y="36.907"/><use xlink:href="#13" y="39.078"/><use xlink:href="#15" y="41.249"/><use xlink:href="#16" y="43.42"/><use xlink:href="#10" y="45.591"/></svg><svg x="10505"><use xlink:href="#a"/><use xlink:href="#b" x="-.004" y="28.198"/><use xlink:href="#3"/><use xlink:href="#4" y="2.171"/><use xlink:href="#5" y="4.342"/><use xlink:href="#6" y="6.513"/><use xlink:href="#7" y="8.684"/><use xlink:href="#8" y="13.026"/><use xlink:href="#9" y="15.197"/><use xlink:href="#14" y="17.368"/><use xlink:href="#18" y="19.539"/><use xlink:href="#19" y="21.71"/><use xlink:href="#18" y="23.881"/><use xlink:href="#10" y="26.052"/><use xlink:href="#13" y="28.223"/><use xlink:href="#15" y="30.394"/><use xlink:href="#17" y="32.565"/><use xlink:href="#10" y="34.736"/><use xlink:href="#12" y="36.907"/><use xlink:href="#13" y="39.078"/><use xlink:href="#15" y="41.249"/><use xlink:href="#16" y="43.42"/><use xlink:href="#10" y="45.591"/></svg><svg x="10696"><use xlink:href="#a"/><use xlink:href="#b" x="-.004" y="30.369"/><use xlink:href="#3"/><use xlink:href="#4" y="2.171"/><use xlink:href="#5" y="4.342"/><use xlink:href="#6" y="6.513"/><use xlink:href="#7" y="8.684"/><use xlink:href="#8" y="13.026"/><use xlink:href="#9" y="15.197"/><use xlink:href="#14" y="17.368"/><use xlink:href="#18" y="19.539"/><use xlink:href="#19" y="21.71"/><use xlink:href="#18" y="23.881"/><use xlink:href="#10" y="26.052"/><use xlink:href="#11" y="28.223"/><use xlink:href="#15" y="30.394"/><use xlink:href="#17" y="32.565"/><use xlink:href="#10" y="34.736"/><use xlink:href="#12" y="36.907"/><use xlink:href="#13" y="39.078"/><use xlink:href="#15" y="41.249"/><use xlink:href="#16" y="43.42"/><use xlink:href="#10" y="45.591"/></svg><svg x="10887"><use xlink:href="#a"/><use xlink:href="#b" x="-.004" y="32.54"/><use xlink:href="#3"/><use xlink:href="#4" y="2.171"/><use xlink:href="#5" y="4.342"/><use xlink:href="#6" y="6.513"/><use xlink:href="#7" y="8.684"/><use xlink:href="#8" y="13.026"/><use xlink:href="#9" y="15.197"/><use xlink:href="#14" y="17.368"/><use xlink:href="#18" y="19.539"/><use xlink:href="#19" y="21.71"/><use xlink:href="#18" y="23.881"/><use xlink:href="#10" y="26.052"/><use xlink:href="#11" y="28.223"/><use xlink:href="#13" y="30.394"/><use xlink:href="#17" y="32.565"/><use xlink:href="#10" y="34.736"/><use xlink:href="#12" y="36.907"/><use xlink:href="#13" y="39.078"/><use xlink:href="#15" y="41.249"/><use xlink:href="#16" y="43.42"/><use xlink:href="#10" y="45.591"/></svg><svg x="11078"><use xlink:href="#a"/><use xlink:href="#b" x="-.004" y="39.053"/><use xlink:href="#3"/><use xlink:href="#4" y="2.171"/><use xlink:href="#5" y="4.342"/><use xlink:href="#6" y="6.513"/><use xlink:href="#7" y="8.684"/><use xlink:href="#8" y="13.026"/><use xlink:href="#9" y="15.197"/><use xlink:href="#14" y="17.368"/><use xlink:href="#18" y="19.539"/><use xlink:href="#19" y="21.71"/><use xlink:href="#18" y="23.881"/><use xlink:href="#10" y="26.052"/><use xlink:href="#11" y="28.223"/><use xlink:href="#13" y="30.394"/><use xlink:href="#15" y="32.565"/><use xlink:href="#17" y="34.736"/><use xlink:href="#10" y="36.907"/><use xlink:href="#13" y="39.078"/><use xlink:href="#15" y="41.249"/><use xlink:href="#16" y="43.42"/><use xlink:href="#10" y="45.591"/></svg><svg x="11269"><use xlink:href="#a"/><use xlink:href="#b" x="-.004" y="43.395"/><use xlink:href="#3"/><use xlink:href="#4" y="2.171"/><use xlink:href="#5" y="4.342"/><use xlink:href="#6" y="6.513"/><use xlink:href="#7" y="8.684"/><use xlink:href="#8" y="13.026"/><use xlink:href="#9" y="15.197"/><use xlink:href="#14" y="17.368"/><use xlink:href="#18" y="19.539"/><use xlink:href="#19" y="21.71"/><use xlink:href="#18" y="23.881"/><use xlink:href="#10" y="26.052"/><use xlink:href="#11" y="28.223"/><use xlink:href="#13" y="30.394"/><use xlink:href="#15" y="32.565"/><use xlink:href="#17" y="34.736"/><use xlink:href="#10" y="36.907"/><use xlink:href="#12" y="39.078"/><use xlink:href="#13" y="41.249"/><use xlink:href="#16" y="43.42"/><use xlink:href="#10" y="45.591"/></svg><svg x="11460"><use xlink:href="#a"/><use xlink:href="#b" x="-.004" y="49.908"/><use xlink:href="#3"/><use xlink:href="#4" y="2.171"/><use xlink:href="#5" y="4.342"/><use xlink:href="#6" y="6.513"/><use xlink:href="#7" y="8.684"/><use xlink:href="#8" y="13.026"/><use xlink:href="#9" y="15.197"/><use xlink:href="#14" y="17.368"/><use xlink:href="#18" y="19.539"/><use xlink:href="#19" y="21.71"/><use xlink:href="#18" y="23.881"/><use xlink:href="#10" y="26.052"/><use xlink:href="#11" y="28.223"/><use xlink:href="#13" y="30.394"/><use xlink:href="#15" y="32.565"/><use xlink:href="#17" y="34.736"/><use xlink:href="#10" y="36.907"/><use xlink:href="#12" y="39.078"/><use xlink:href="#13" y="41.249"/><use xlink:href="#15" y="43.42"/><use xlink:href="#16" y="45.591"/><use xlink:href="#10" y="47.762"/></svg><svg x="11651"><use xlink:href="#a"/><use xlink:href="#b" x="-.004" y="49.908"/><use xlink:href="#3"/><use xlink:href="#4" y="2.171"/><use xlink:href="#5" y="4.342"/><use xlink:href="#6" y="6.513"/><use xlink:href="#7" y="8.684"/><use xlink:href="#8" y="13.026"/><use xlink:href="#9" y="15.197"/><use xlink:href="#14" y="17.368"/><use xlink:href="#18" y="19.539"/><use xlink:href="#19" y="21.71"/><use xlink:href="#18" y="23.881"/><use xlink:href="#10" y="26.052"/><use xlink:href="#11" y="28.223"/><use xlink:href="#13" y="30.394"/><use xlink:href="#15" y="32.565"/><use xlink:href="#17" y="34.736"/><use xlink:href="#10" y="36.907"/><use xlink:href="#12" y="39.078"/><use xlink:href="#13" y="41.249"/><use xlink:href="#15" y="43.42"/><use xlink:href="#16" y="45.591"/><use xlink:href="#10" y="47.762"/></svg><svg x="11842"><use xlink:href="#a"/><use xlink:href="#b" x="-.004" y="41.224"/><use xlink:href="#3"/><use xlink:href="#4" y="2.171"/><use xlink:href="#5" y="4.342"/><use xlink:href="#6" y="6.513"/><use xlink:href="#7" y="8.684"/><use xlink:href="#8" y="13.026"/><use xlink:href="#9" y="15.197"/><use xlink:href="#14" y="17.368"/><use xlink:href="#18" y="19.539"/><use xlink:href="#19" y="21.71"/><use xlink:href="#18" y="23.881"/><use xlink:href="#20" y="26.052"/><use xlink:href="#10" y="28.223"/><use xlink:href="#11" y="30.394"/><use xlink:href="#13" y="32.565"/><use xlink:href="#15" y="34.736"/><use xlink:href="#17" y="36.907"/><use xlink:href="#10" y="39.078"/><use xlink:href="#13" y="41.249"/><use xlink:href="#15" y="43.42"/><use xlink:href="#16" y="45.591"/><use xlink:href="#10" y="47.762"/></svg><svg x="12033"><use xlink:href="#a"/><use xlink:href="#b" x="-.004" y="45.566"/><use xlink:href="#3"/><use xlink:href="#4" y="2.171"/><use xlink:href="#5" y="4.342"/><use xlink:href="#6" y="6.513"/><use xlink:href="#7" y="8.684"/><use xlink:href="#8" y="13.026"/><use xlink:href="#9" y="15.197"/><use xlink:href="#14" y="17.368"/><use xlink:href="#18" y="19.539"/><use xlink:href="#19" y="21.71"/><use xlink:href="#18" y="23.881"/><use xlink:href="#20" y="26.052"/><use xlink:href="#10" y="28.223"/><use xlink:href="#11" y="30.394"/><use xlink:href="#13" y="32.565"/><use xlink:href="#15" y="34.736"/><use xlink:href="#17" y="36.907"/><use xlink:href="#10" y="39.078"/><use xlink:href="#12" y="41.249"/><use xlink:href="#13" y="43.42"/><use xlink:href="#16" y="45.591"/><use xlink:href="#10" y="47.762"/></svg><svg x="12224"><use xlink:href="#a"/><use xlink:href="#b" x="-.004" y="47.737"/><use xlink:href="#3"/><use xlink:href="#4" y="2.171"/><use xlink:href="#5" y="4.342"/><use xlink:href="#6" y="6.513"/><use xlink:href="#7" y="8.684"/><use xlink:href="#8" y="13.026"/><use xlink:href="#9" y="15.197"/><use xlink:href="#14" y="17.368"/><use xlink:href="#18" y="19.539"/><use xlink:href="#19" y="21.71"/><use xlink:href="#18" y="23.881"/><use xlink:href="#20" y="26.052"/><use xlink:href="#10" y="28.223"/><use xlink:href="#11" y="30.394"/><use xlink:href="#13" y="32.565"/><use xlink:href="#15" y="34.736"/><use xlink:href="#17" y="36.907"/><use xlink:href="#10" y="39.078"/><use xlink:href="#12" y="41.249"/><use xlink:href="#13" y="43.42"/><use xlink:href="#15" y="45.591"/><use xlink:href="#10" y="47.762"/></svg><svg x="12415"><use xlink:href="#a"/><use xlink:href="#b" x="-.004" y="52.079"/><use xlink:href="#3"/><use xlink:href="#4" y="2.171"/><use xlink:href="#5" y="4.342"/><use xlink:href="#6" y="6.513"/><use xlink:href="#7" y="8.684"/><use xlink:href="#8" y="13.026"/><use xlink:href="#9" y="15.197"/><use xlink:href="#14" y="17.368"/><use xlink:href="#18" y="19.539"/><use xlink:href="#19" y="21.71"/><use xlink:href="#18" y="23.881"/><use xlink:href="#20" y="26.052"/><use xlink:href="#10" y="28.223"/><use xlink:href="#11" y="30.394"/><use xlink:href="#13" y="32.565"/><use xlink:href="#15" y="34.736"/><use xlink:href="#17" y="36.907"/><use xlink:href="#10" y="39.078"/><use xlink:href="#12" y="41.249"/><use xlink:href="#13" y="43.42"/><use xlink:href="#15" y="45.591"/><use xlink:href="#16" y="47.762"/><use xlink:href="#10" y="49.933"/></svg><svg x="12606"><use xlink:href="#a"/><use xlink:href="#b" x="-.004" y="34.711"/><use xlink:href="#3"/><use xlink:href="#4" y="2.171"/><use xlink:href="#5" y="4.342"/><use xlink:href="#6" y="6.513"/><use xlink:href="#7" y="8.684"/><use xlink:href="#8" y="13.026"/><use xlink:href="#9" y="15.197"/><use xlink:href="#14" y="17.368"/><use xlink:href="#18" y="19.539"/><use xlink:href="#19" y="21.71"/><use xlink:href="#18" y="23.881"/><use xlink:href="#20" y="26.052"/><use xlink:href="#21" y="28.223"/><use xlink:href="#10" y="30.394"/><use xlink:href="#11" y="32.565"/><use xlink:href="#15" y="34.736"/><use xlink:href="#17" y="36.907"/><use xlink:href="#10" y="39.078"/><use xlink:href="#12" y="41.249"/><use xlink:href="#13" y="43.42"/><use xlink:href="#15" y="45.591"/><use xlink:href="#16" y="47.762"/><use xlink:href="#10" y="49.933"/></svg><svg x="12797"><use xlink:href="#a"/><use xlink:href="#b" x="-.004" y="41.224"/><use xlink:href="#3"/><use xlink:href="#4" y="2.171"/><use xlink:href="#5" y="4.342"/><use xlink:href="#6" y="6.513"/><use xlink:href="#7" y="8.684"/><use xlink:href="#8" y="13.026"/><use xlink:href="#9" y="15.197"/><use xlink:href="#14" y="17.368"/><use xlink:href="#18" y="19.539"/><use xlink:href="#19" y="21.71"/><use xlink:href="#18" y="23.881"/><use xlink:href="#20" y="26.052"/><use xlink:href="#21" y="28.223"/><use xlink:href="#10" y="30.394"/><use xlink:href="#11" y="32.565"/><use xlink:href="#13" y="34.736"/><use xlink:href="#15" y="36.907"/><use xlink:href="#17" y="39.078"/><use xlink:href="#12" y="41.249"/><use xlink:href="#13" y="43.42"/><use xlink:href="#15" y="45.591"/><use xlink:href="#16" y="47.762"/><use xlink:href="#10" y="49.933"/></svg><svg x="12988"><use xlink:href="#a"/><use xlink:href="#b" x="-.004" y="45.566"/><use xlink:href="#3"/><use xlink:href="#4" y="2.171"/><use xlink:href="#5" y="4.342"/><use xlink:href="#6" y="6.513"/><use xlink:href="#7" y="8.684"/><use xlink:href="#8" y="13.026"/><use xlink:href="#9" y="15.197"/><use xlink:href="#14" y="17.368"/><use xlink:href="#18" y="19.539"/><use xlink:href="#19" y="21.71"/><use xlink:href="#18" y="23.881"/><use xlink:href="#20" y="26.052"/><use xlink:href="#21" y="28.223"/><use xlink:href="#10" y="30.394"/><use xlink:href="#11" y="32.565"/><use xlink:href="#13" y="34.736"/><use xlink:href="#15" y="36.907"/><use xlink:href="#17" y="39.078"/><use xlink:href="#10" y="41.249"/><use xlink:href="#12" y="43.42"/><use xlink:href="#15" y="45.591"/><use xlink:href="#16" y="47.762"/><use xlink:href="#10" y="49.933"/></svg><svg x="13179"><use xlink:href="#a"/><use xlink:href="#b" x="-.004" y="49.908"/><use xlink:href="#3"/><use xlink:href="#4" y="2.171"/><use xlink:href="#5" y="4.342"/><use xlink:href="#6" y="6.513"/><use xlink:href="#7" y="8.684"/><use xlink:href="#8" y="13.026"/><use xlink:href="#9" y="15.197"/><use xlink:href="#14" y="17.368"/><use xlink:href="#18" y="19.539"/><use xlink:href="#19" y="21.71"/><use xlink:href="#18" y="23.881"/><use xlink:href="#20" y="26.052"/><use xlink:href="#21" y="28.223"/><use xlink:href="#10" y="30.394"/><use xlink:href="#11" y="32.565"/><use xlink:href="#13" y="34.736"/><use xlink:href="#15" y="36.907"/><use xlink:href="#17" y="39.078"/><use xlink:href="#10" y="41.249"/><use xlink:href="#12" y="43.42"/><use xlink:href="#13" y="45.591"/><use xlink:href="#15" y="47.762"/><use xlink:href="#10" y="49.933"/></svg><svg x="13370"><use xlink:href="#a"/><use xlink:href="#b" x="-.004" y="54.25"/><use xlink:href="#3"/><use xlink:href="#4" y="2.171"/><use xlink:href="#5" y="4.342"/><use xlink:href="#6" y="6.513"/><use xlink:href="#7" y="8.684"/><use xlink:href="#8" y="13.026"/><use xlink:href="#9" y="15.197"/><use xlink:href="#14" y="17.368"/><use xlink:href="#18" y="19.539"/><use xlink:href="#19" y="21.71"/><use xlink:href="#18" y="23.881"/><use xlink:href="#20" y="26.052"/><use xlink:href="#21" y="28.223"/><use xlink:href="#10" y="30.394"/><use xlink:href="#11" y="32.565"/><use xlink:href="#13" y="34.736"/><use xlink:href="#15" y="36.907"/><use xlink:href="#17" y="39.078"/><use xlink:href="#10" y="41.249"/><use xlink:href="#12" y="43.42"/><use xlink:href="#13" y="45.591"/><use xlink:href="#15" y="47.762"/><use xlink:href="#16" y="49.933"/><use xlink:href="#10" y="52.104"/></svg><svg x="13561"><use xlink:href="#a"/><use xlink:href="#b" x="-.004" y="54.25"/><use xlink:href="#3"/><use xlink:href="#4" y="2.171"/><use xlink:href="#5" y="4.342"/><use xlink:href="#6" y="6.513"/><use xlink:href="#7" y="8.684"/><use xlink:href="#8" y="13.026"/><use xlink:href="#9" y="15.197"/><use xlink:href="#14" y="17.368"/><use xlink:href="#18" y="19.539"/><use xlink:href="#19" y="21.71"/><use xlink:href="#18" y="23.881"/><use xlink:href="#20" y="26.052"/><use xlink:href="#21" y="28.223"/><use xlink:href="#10" y="30.394"/><use xlink:href="#11" y="32.565"/><use xlink:href="#13" y="34.736"/><use xlink:href="#15" y="36.907"/><use xlink:href="#17" y="39.078"/><use xlink:href="#10" y="41.249"/><use xlink:href="#12" y="43.42"/><use xlink:href="#13" y="45.591"/><use xlink:href="#15" y="47.762"/><use xlink:href="#16" y="49.933"/><use xlink:href="#10" y="52.104"/></svg><svg x="13752"><use xlink:href="#a"/><use xlink:href="#b" x="-.004" y="54.25"/><use xlink:href="#3"/><use xlink:href="#4" y="2.171"/><use xlink:href="#5" y="4.342"/><use xlink:href="#6" y="6.513"/><use xlink:href="#7" y="8.684"/><use xlink:href="#8" y="13.026"/><use xlink:href="#9" y="15.197"/><use xlink:href="#14" y="17.368"/><use xlink:href="#18" y="19.539"/><use xlink:href="#19" y="21.71"/><use xlink:href="#18" y="23.881"/><use xlink:href="#20" y="26.052"/><use xlink:href="#21" y="28.223"/><use xlink:href="#10" y="30.394"/><use xlink:href="#11" y="32.565"/><use xlink:href="#13" y="34.736"/><use xlink:href="#15" y="36.907"/><use xlink:href="#17" y="39.078"/><use xlink:href="#10" y="41.249"/><use xlink:href="#12" y="43.42"/><use xlink:href="#13" y="45.591"/><use xlink:href="#15" y="47.762"/><use xlink:href="#16" y="49.933"/><use xlink:href="#22" y="52.104"/></svg><svg x="13943"><use xlink:href="#a"/><use xlink:href="#b" x="-.004" y="54.25"/><use xlink:href="#3"/><use xlink:href="#4" y="2.171"/><use xlink:href="#5" y="4.342"/><use xlink:href="#6" y="6.513"/><use xlink:href="#7" y="8.684"/><use xlink:href="#8" y="13.026"/><use xlink:href="#9" y="15.197"/><use xlink:href="#14" y="17.368"/><use xlink:href="#18" y="19.539"/><use xlink:href="#19" y="21.71"/><use xlink:href="#18" y="23.881"/><use xlink:href="#20" y="26.052"/><use xlink:href="#21" y="28.223"/><use xlink:href="#10" y="30.394"/><use xlink:href="#11" y="32.565"/><use xlink:href="#13" y="34.736"/><use xlink:href="#15" y="36.907"/><use xlink:href="#17" y="39.078"/><use xlink:href="#22" y="41.249"/><use xlink:href="#12" y="43.42"/><use xlink:href="#13" y="45.591"/><use xlink:href="#15" y="47.762"/><use xlink:href="#16" y="49.933"/><use xlink:href="#22" y="52.104"/></svg><svg x="14134"><use xlink:href="#a"/><use xlink:href="#b" x="-.004" y="54.25"/><use xlink:href="#3"/><use xlink:href="#4" y="2.171"/><use xlink:href="#5" y="4.342"/><use xlink:href="#6" y="6.513"/><use xlink:href="#7" y="8.684"/><use xlink:href="#8" y="13.026"/><use xlink:href="#9" y="15.197"/><use xlink:href="#14" y="17.368"/><use xlink:href="#18" y="19.539"/><use xlink:href="#19" y="21.71"/><use xlink:href="#18" y="23.881"/><use xlink:href="#20" y="26.052"/><use xlink:href="#21" y="28.223"/><use xlink:href="#22" y="30.394"/><use xlink:href="#11" y="32.565"/><use xlink:href="#13" y="34.736"/><use xlink:href="#15" y="36.907"/><use xlink:href="#17" y="39.078"/><use xlink:href="#22" y="41.249"/><use xlink:href="#12" y="43.42"/><use xlink:href="#13" y="45.591"/><use xlink:href="#15" y="47.762"/><use xlink:href="#16" y="49.933"/><use xlink:href="#22" y="52.104"/></svg><svg x="14325"><use xlink:href="#a"/><use xlink:href="#b" x="-.004" y="54.25"/><use xlink:href="#3"/><use xlink:href="#4" y="2.171"/><use xlink:href="#5" y="4.342"/><use xlink:href="#6" y="6.513"/><use xlink:href="#7" y="8.684"/><use xlink:href="#8" y="13.026"/><use xlink:href="#9" y="15.197"/><use xlink:href="#14" y="17.368"/><use xlink:href="#18" y="19.539"/><use xlink:href="#19" y="21.71"/><use xlink:href="#18" y="23.881"/><use xlink:href="#20" y="26.052"/><use xlink:href="#21" y="28.223"/><use xlink:href="#22" y="30.394"/><use xlink:href="#11" y="32.565"/><use xlink:href="#13" y="34.736"/><use xlink:href="#15" y="36.907"/><use xlink:href="#17" y="39.078"/><use xlink:href="#22" y="41.249"/><use xlink:href="#12" y="43.42"/><use xlink:href="#13" y="45.591"/><use xlink:href="#15" y="47.762"/><use xlink:href="#16" y="49.933"/><use xlink:href="#22" y="52.104"/></svg><svg x="14516"><use xlink:href="#a"/><use xlink:href="#b" x="-.004" y="54.25"/><use xlink:href="#3"/><use xlink:href="#4" y="2.171"/><use xlink:href="#5" y="4.342"/><use xlink:href="#6" y="6.513"/><use xlink:href="#7" y="8.684"/><use xlink:href="#8" y="13.026"/><use xlink:href="#9" y="15.197"/><use xlink:href="#14" y="17.368"/><use xlink:href="#18" y="19.539"/><use xlink:href="#19" y="21.71"/><use xlink:href="#18" y="23.881"/><use xlink:href="#20" y="26.052"/><use xlink:href="#21" y="28.223"/><use xlink:href="#22" y="30.394"/><use xlink:href="#11" y="32.565"/><use xlink:href="#13" y="34.736"/><use xlink:href="#15" y="36.907"/><use xlink:href="#17" y="39.078"/><use xlink:href="#22" y="41.249"/><use xlink:href="#12" y="43.42"/><use xlink:href="#13" y="45.591"/><use xlink:href="#15" y="47.762"/><use xlink:href="#16" y="49.933"/><use xlink:href="#22" y="52.104"/></svg><svg x="14707"><use xlink:href="#a"/><use xlink:href="#b" x="-.004" y="54.25"/><use xlink:href="#3"/><use xlink:href="#4" y="2.171"/><use xlink:href="#5" y="4.342"/><use xlink:href="#6" y="6.513"/><use xlink:href="#7" y="8.684"/><use xlink:href="#8" y="13.026"/><use xlink:href="#9" y="15.197"/><use xlink:href="#14" y="17.368"/><use xlink:href="#18" y="19.539"/><use xlink:href="#19" y="21.71"/><use xlink:href="#18" y="23.881"/><use xlink:href="#20" y="26.052"/><use xlink:href="#21" y="28.223"/><use xlink:href="#22" y="30.394"/><use xlink:href="#11" y="32.565"/><use xlink:href="#13" y="34.736"/><use xlink:href="#15" y="36.907"/><use xlink:href="#17" y="39.078"/><use xlink:href="#22" y="41.249"/><use xlink:href="#12" y="43.42"/><use xlink:href="#13" y="45.591"/><use xlink:href="#15" y="47.762"/><use xlink:href="#16" y="49.933"/><use xlink:href="#22" y="52.104"/></svg><svg x="14898"><use xlink:href="#a"/><use xlink:href="#b" x="10.996" y="54.25"/><use xlink:href="#3"/><use xlink:href="#4" y="2.171"/><use xlink:href="#5" y="4.342"/><use xlink:href="#6" y="6.513"/><use xlink:href="#7" y="8.684"/><use xlink:href="#8" y="13.026"/><use xlink:href="#9" y="15.197"/><use xlink:href="#14" y="17.368"/><use xlink:href="#18" y="19.539"/><use xlink:href="#19" y="21.71"/><use xlink:href="#18" y="23.881"/><use xlink:href="#20" y="26.052"/><use xlink:href="#21" y="28.223"/><use xlink:href="#22" y="30.394"/><use xlink:href="#11" y="32.565"/><use xlink:href="#13" y="34.736"/><use xlink:href="#15" y="36.907"/><use xlink:href="#17" y="39.078"/><use xlink:href="#22" y="41.249"/><use xlink:href="#12" y="43.42"/><use xlink:href="#13" y="45.591"/><use xlink:href="#15" y="47.762"/><use xlink:href="#16" y="49.933"/><use xlink:href="#22" y="52.104"/><use xlink:href="#1" y="54.275"/></svg><svg x="15089"><use xlink:href="#a"/><use xlink:href="#b" x="10.996" y="54.25"/><use xlink:href="#3"/><use xlink:href="#4" y="2.171"/><use xlink:href="#5" y="4.342"/><use xlink:href="#6" y="6.513"/><use xlink:href="#7" y="8.684"/><use xlink:href="#8" y="13.026"/><use xlink:href="#9" y="15.197"/><use xlink:href="#14" y="17.368"/><use xlink:href="#18" y="19.539"/><use xlink:href="#19" y="21.71"/><use xlink:href="#18" y="23.881"/><use xlink:href="#20" y="26.052"/><use xlink:href="#21" y="28.223"/><use xlink:href="#22" y="30.394"/><use xlink:href="#11" y="32.565"/><use xlink:href="#13" y="34.736"/><use xlink:href="#15" y="36.907"/><use xlink:href="#17" y="39.078"/><use xlink:href="#22" y="41.249"/><use xlink:href="#12" y="43.42"/><use xlink:href="#13" y="45.591"/><use xlink:href="#15" y="47.762"/><use xlink:href="#16" y="49.933"/><use xlink:href="#22" y="52.104"/><use xlink:href="#1" y="54.275"/></svg><svg x="15280"><use xlink:href="#a"/><use xlink:href="#b" x="10.996" y="54.25"/><use xlink:href="#3"/><use xlink:href="#4" y="2.171"/><use xlink:href="#5" y="4.342"/><use xlink:href="#6" y="6.513"/><use xlink:href="#7" y="8.684"/><use xlink:href="#8" y="13.026"/><use xlink:href="#9" y="15.197"/><use xlink:href="#14" y="17.368"/><use xlink:href="#18" y="19.539"/><use xlink:href="#19" y="21.71"/><use xlink:href="#18" y="23.881"/><use xlink:href="#20" y="26.052"/><use xlink:href="#21" y="28.223"/><use xlink:href="#22" y="30.394"/><use xlink:href="#11" y="32.565"/><use xlink:href="#13" y="34.736"/><use xlink:href="#15" y="36.907"/><use xlink:href="#17" y="39.078"/><use xlink:href="#22" y="41.249"/><use xlink:href="#12" y="43.42"/><use xlink:href="#13" y="45.591"/><use xlink:href="#15" y="47.762"/><use xlink:href="#16" y="49.933"/><use xlink:href="#22" y="52.104"/><use xlink:href="#1" y="54.275"/></svg><svg x="15471"><use xlink:href="#a"/><use xlink:href="#b" x="-.004" y="56.421"/><use xlink:href="#3"/><use xlink:href="#4" y="2.171"/><use xlink:href="#5" y="4.342"/><use xlink:href="#6" y="6.513"/><use xlink:href="#7" y="8.684"/><use xlink:href="#8" y="13.026"/><use xlink:href="#9" y="15.197"/><use xlink:href="#14" y="17.368"/><use xlink:href="#18" y="19.539"/><use xlink:href="#19" y="21.71"/><use xlink:href="#18" y="23.881"/><use xlink:href="#20" y="26.052"/><use xlink:href="#21" y="28.223"/><use xlink:href="#22" y="30.394"/><use xlink:href="#11" y="32.565"/><use xlink:href="#13" y="34.736"/><use xlink:href="#15" y="36.907"/><use xlink:href="#17" y="39.078"/><use xlink:href="#22" y="41.249"/><use xlink:href="#12" y="43.42"/><use xlink:href="#13" y="45.591"/><use xlink:href="#15" y="47.762"/><use xlink:href="#16" y="49.933"/><use xlink:href="#22" y="52.104"/><use xlink:href="#1" y="54.275"/></svg></svg></g></g></svg></svg>